# xmcd
#
# Track frame offsets: 
#        150
#        17223
#        28828
#        40209
#        56903
#        66568
#        81638
#        92689
#        105712
#        121804
#        137386
#        148723
#        164234
#        180301
#        191879
#
# Disc length: 2742 seconds
#
# Revision: 0
# Processed by: cddbd v1.5.2PL0 Copyright (c) Steve Scherf et al.
# Submitted via: ExactAudioCopy v0.95b4
#
DISCID=e10ab40f
DTITLE=The Giant City Slickers - Bluegill Boogie
DYEAR=2012
DGENRE=Bluegrass
TTITLE0=Bluegill Boogie
TTITLE1=I'm Gonna Be Boss From Now On
TTITLE2=Stay a Little Longer
TTITLE3=Twin Guitar Boogie
TTITLE4=Catch 'Em Young, Treat 'Em Rough, Tell 'Em Nothin'
TTITLE5=I Gotta Have My Baby Back
TTITLE6=Bubbles In My Beer
TTITLE7=I'll Keep My Old Guitar
TTITLE8=Fat Boy Rag
TTITLE9=Brain Cloudy Blues
TTITLE10=Roly Poly
TTITLE11=Texarkana Baby
TTITLE12=Pistol Packin' Mama
TTITLE13=You Want Everything But Me
TTITLE14=Who Walks In When I Walk Out
EXTD=
EXTT0=
EXTT1=
EXTT2=
EXTT3=
EXTT4=
EXTT5=
EXTT6=
EXTT7=
EXTT8=
EXTT9=
EXTT10=
EXTT11=
EXTT12=
EXTT13=
EXTT14=
PLAYORDER=
